Simulation
nRows=35
nColumns=15
endheader
time  TH_x TH_y TH_z SC_y  SC_z  SC_x  AC_y  AC_z  AC_x  GH_y  GH_z  GH_yy  EL_x  PS_y
0.0  0.000000  0.000000  0.000000  -21.481837363305974  5.049547332879065  0.3347068766571287  41.26544075018421  4.508446449949846  -8.653938032539875  80.22737622675805  10.059614478253229  -27.141819246914142  20.78115702151095  120.000000
0.04802000000000001  0.000000  0.000000  0.000000  -22.86189648724645  5.648378561034872  0.16931193482204895  42.58798511690682  5.12958163339835  -6.826118398746458  75.24919197622877  8.589060371626003  -23.143823176096213  20.26373383454754  120.000000
0.09604000000000001  0.000000  0.000000  0.000000  -24.049648978303  6.256774839971918  0.16117774844660826  43.850312700906166  5.701687145846246  -5.182336572270964  68.093887925291  7.413894446401377  -17.106679952222837  19.72243406993674  120.000000
0.14406000000000002  0.000000  0.000000  0.000000  -25.039213696336247  6.856250393219847  0.24950702318421333  44.949811085362605  6.1910815370132735  -3.779503159296705  57.85044108168224  6.593600071697076  -8.225640704617064  19.11464536887773  120.000000
0.19208000000000003  0.000000  0.000000  0.000000  -25.952790481573615  7.456668639000828  0.386040779736212  45.81830109150654  6.588156173642992  -2.5788284619646062  44.9050632864202  6.273473766141685  3.05205747302378  18.43849619252509  120.000000
0.24010000000000004  0.000000  0.000000  0.000000  -26.873016480636306  8.06633580271734  0.549936347724817  46.48540000823668  6.909892367413368  -1.5546117724626864  31.843399964542577  6.562621286141161  14.143466938263753  17.714197056136893  120.000000
0.28812000000000004  0.000000  0.000000  0.000000  -27.880505149105677  8.703578342682945  0.7520315008278501  46.97754007274106  7.17974666723249  -0.6755095219790701  21.29506679501955  7.406008496483909  22.45387852463965  16.96540606937606  120.000000
0.33614000000000005  0.000000  0.000000  0.000000  -29.004441879961995  9.372259140540262  1.0152800636931003  47.32610200779544  7.43323751007734  0.08321132079988343  13.840601178872905  8.672113089742274  27.45354363912794  16.204205390636194  120.000000
0.38416000000000006  0.000000  0.000000  0.000000  -30.24546993209224  10.078194660851137  1.3668431096905513  47.55999869479637  7.6941390061537955  0.7430704891876555  8.786627816107059  10.253525429251052  29.889360035038244  15.44688513149869  120.000000
0.43218000000000006  0.000000  0.000000  0.000000  -31.57750304435099  10.810664628849803  1.8228226507151002  47.69853395398608  7.9760249178076785  1.3201790408777194  5.221846778332396  12.084807826764186  30.72895165719553  14.705041046754866  120.000000
0.48020000000000007  0.000000  0.000000  0.000000  -32.96585157040391  11.562870830227082  2.3875707370558352  47.7585548003423  8.275479863259854  1.8282008558578065  2.5162743802975114  14.130068202719524  30.660735031968205  13.994409794258239  120.000000
0.5282200000000001  0.000000  0.000000  0.000000  -34.36947992577147  12.319957371764438  3.0530738600173417  47.75519382058728  8.57860047290191  2.2781802253963757  0.29900292186710725  16.368374488274515  30.11342671547584  13.325361543742245  120.000000
0.5762400000000001  0.000000  0.000000  0.000000  -35.753702909061175  13.070102603768726  3.8015884875929418  47.70666705652483  8.864657931604997  2.682009356474656  -1.590116661119685  18.784286345364116  29.300784449078286  12.707118607361087  120.000000
0.62426  0.000000  0.000000  0.000000  -37.08734508674709  13.797128080730223  4.607259459764343  47.63414719490932  9.114697859915223  3.0492688022133603  -3.2110949520333905  21.361163255951315  28.327220410249755  12.143552989140767  120.000000
0.6722800000000001  0.000000  0.000000  0.000000  -38.34915254585076  14.487671908959744  5.437695225950874  47.56086373381905  9.31788644794403  3.3906163627866226  -4.5668562681426295  24.075744408367203  27.22519138428881  11.635571712564214  120.000000
0.7203000000000002  0.000000  0.000000  0.000000  -39.52412673594408  15.125334903042251  6.257810128096428  47.507388568958  9.477353289265817  3.717466258605941  -5.650742200763497  26.897989550060476  25.998124360638304  11.176333636613494  120.000000
0.7683200000000001  0.000000  0.000000  0.000000  -40.604718730779716  15.696988932885343  7.037949212498487  47.492522858320186  9.6078294856722  4.0393704165032585  -6.455985843988231  29.79034376624555  24.6297260814304  10.751930861095385  120.000000
0.8163400000000001  0.000000  0.000000  0.000000  -41.588013975665284  16.188381659498024  7.765088727418657  47.528313469922914  9.727789300297422  4.360519023579623  -6.989589651751078  32.71336915807039  23.10310844052331  10.341243057632214  120.000000
0.8643600000000001  0.000000  0.000000  0.000000  -42.475894529097154  16.591533395278073  8.435502469088659  47.6213935086034  9.858387993839784  4.682121870566249  -7.273445619507667  35.628437957757185  21.4112020362622  9.922163823010981  120.000000
0.9123800000000002  0.000000  0.000000  0.000000  -43.271731455143026  16.901891402489643  9.050110620530221  47.7697194256455  10.019829036263395  5.005062586634236  -7.345766304456416  38.50238373425211  19.567953786860482  9.478153934064787  120.000000
0.9604000000000001  0.000000  0.000000  0.000000  -43.98014434580362  17.12187762697144  9.608281331081482  47.9639845497318  10.226411937059018  5.330056213929592  -7.257948525134316  41.30748203797526  17.613675775751467  9.007080703635964  120.000000
1.00842  0.000000  0.000000  0.000000  -44.6027639232828  17.259596932112615  10.10457211655549  48.1879054243636  10.485650448257088  5.655904982906574  -7.0710865816961315  44.01977156819931  15.613805632478424  8.522414295390753  120.000000
1.0564400000000003  0.000000  0.000000  0.000000  -45.141054524718605  17.327494484493847  10.529136719955565  48.420521726731366  10.796207384181926  5.98103922605015  -6.847234568665132  46.61551340727437  13.648785598942853  8.049649288506107  120.000000
1.1044600000000002  0.000000  0.000000  0.000000  -45.5948291655568  17.340647645722118  10.866382658132272  48.639779731157695  11.150794481955442  6.300877942249509  -6.641876236111297  49.06683083771845  11.80071557274538  7.6174422306065575  120.000000
1.1524800000000002  0.000000  0.000000  0.000000  -45.96690696922903  17.313882367887093  11.09822580682453  48.825939788742794  11.538589301864357  6.612698281150643  -6.4946564672795395  51.34254579609953  10.140640971734177  7.25153936477861  120.000000
1.2005000000000001  0.000000  0.000000  0.000000  -46.26120122914255  17.261004681378086  11.209945516268773  48.96733819507079  11.944788763853538  6.912156536629792  -6.426770822406234  53.41062218599966  8.72128135177285  6.970702304888414  120.000000
1.24852  0.000000  0.000000  0.000000  -46.485712910495586  17.19344150458417  11.197537556307715  49.06129836885364  12.349212355731611  7.1948611960418285  -6.441908948552937  55.24299225302829  7.574756449226072  6.7869213712346665  120.000000
1.2965400000000002  0.000000  0.000000  0.000000  -46.6505495616969  17.121762283220786  11.06469424811922  49.112724175859945  12.73092547181215  7.455136335335398  -6.532705727483335  56.818560362394756  6.71451793528163  6.705791148972196  120.000000
1.3445600000000002  0.000000  0.000000  0.000000  -46.767858107614174  17.054212373345287  10.824030043572408  49.13017332062911  13.072797400104456  7.6892838421851115  -6.684967207456307  58.12650367505521  6.13562661935819  6.724987341148199  120.000000
1.3925800000000002  0.000000  0.000000  0.000000  -46.84914120664047  16.996342021624297  10.496875090478586  49.12172492259282  13.367378522207549  7.898360918231824  -6.882025593827427  59.16865842532066  5.814318704660162  6.829339918325309  120.000000
1.4406000000000003  0.000000  0.000000  0.000000  -46.904426263288194  16.951494838977844  10.112897502882483  49.09480404822447  13.618092796261386  8.08752062516768  -7.107678160523507  59.95963063818402  5.710018963421135  6.988038144700048  120.000000
1.4886200000000003  0.000000  0.000000  0.000000  -46.9410140502349  16.920267840148906  9.708402482689328  49.05353154804626  13.836712660927919  8.265256360346763  -7.348401852473978  60.523827267314445  5.771687423443431  7.15786566187194  120.000000
1.5366400000000002  0.000000  0.000000  0.000000  -46.96482574044794  16.903294635937893  9.31949365498222  49.0005971411301  14.03819379911086  8.437940606070567  -7.591977852273249  60.890339480552306  5.94545880861138  7.293375204592611  120.000000
1.5846600000000002  0.000000  0.000000  0.000000  -46.97969545916732  16.900050242287193  8.976196886422917  48.93677753755601  14.234644619756873  8.610693108975859  -7.824507396637621  61.086241594992025  6.18346325086201  7.359416966241458  120.000000
1.6326800000000001  0.000000  0.000000  0.000000  -46.98715447337871  16.910102801561155  8.696312662787369  48.86353083014404  14.430841360739217  8.783460952981674  -8.02799508928826  61.12869279713081  6.450045104399054  7.342189073094135  120.000000
